<svg xmlns="http://www.w3.org/2000/svg" xmlns:xlink="http://www.w3.org/1999/xlink" width="500" zoomAndPan="magnify" viewBox="0 0 375 374.999991" height="500" preserveAspectRatio="xMidYMid meet" version="1.0"><defs><g/></defs><g fill="#000000" fill-opacity="1"><g transform="translate(118.277011, 185.778357)"><g><path d="M 0.40625 -50.734375 L 16.984375 -50.734375 L 16.984375 -1.21875 L 20.765625 -1.21875 L 20.765625 0 L 0.671875 0 L 0.671875 -1.21875 L 4.390625 -1.21875 L 4.390625 -49.515625 L 0.40625 -49.515625 Z M 0.40625 -50.734375 "/></g></g></g><g fill="#000000" fill-opacity="1"><g transform="translate(139.65146, 185.778357)"><g><path d="M 0.34375 -30.984375 L 0.34375 -32.203125 L 19.953125 -32.203125 L 19.953125 -30.984375 L 16.296875 -30.984375 L 23.671875 -8.515625 L 31.515625 -30.984375 L 26.984375 -30.984375 L 26.984375 -32.203125 L 36.53125 -32.203125 L 36.53125 -30.984375 L 33.140625 -30.984375 L 20.5 5.484375 C 19.007812 9.722656 17.335938 12.6875 15.484375 14.375 C 13.640625 16.0625 11.382812 16.90625 8.71875 16.90625 C 6.0625 16.90625 3.96875 16.296875 2.4375 15.078125 C 0.90625 13.859375 0.140625 12.300781 0.140625 10.40625 C 0.140625 8.519531 0.632812 7.078125 1.625 6.078125 C 2.613281 5.085938 3.921875 4.59375 5.546875 4.59375 C 9.285156 4.59375 11.15625 6.148438 11.15625 9.265625 C 11.15625 9.941406 11.019531 10.753906 10.75 11.703125 L 8.390625 11.703125 C 8.023438 12.734375 7.976562 13.585938 8.25 14.265625 C 8.519531 14.941406 9.128906 15.28125 10.078125 15.28125 C 11.929688 15.28125 13.578125 14.367188 15.015625 12.546875 C 16.460938 10.722656 17.835938 7.9375 19.140625 4.1875 L 20.625 0 L 14.671875 0 L 3.109375 -30.984375 Z M 0.34375 -30.984375 "/></g></g></g><g fill="#000000" fill-opacity="1"><g transform="translate(175.636295, 185.778357)"><g><path d="M 0.8125 -32.203125 L 17.109375 -32.203125 L 17.109375 -25.96875 C 17.828125 -28.039062 18.929688 -29.707031 20.421875 -30.96875 C 21.910156 -32.238281 24.164062 -32.875 27.1875 -32.875 C 34.175781 -32.875 37.671875 -29.109375 37.671875 -21.578125 L 37.671875 -1.21875 L 41.46875 -1.21875 L 41.46875 0 L 22.328125 0 L 22.328125 -1.21875 L 25.09375 -1.21875 L 25.09375 -23.203125 C 25.09375 -25.910156 24.910156 -27.65625 24.546875 -28.4375 C 24.191406 -29.226562 23.539062 -29.625 22.59375 -29.625 C 21.144531 -29.625 19.867188 -28.675781 18.765625 -26.78125 C 17.660156 -24.882812 17.109375 -22.585938 17.109375 -19.890625 L 17.109375 -1.21875 L 20.015625 -1.21875 L 20.015625 0 L 0.8125 0 L 0.8125 -1.21875 L 4.53125 -1.21875 L 4.53125 -30.984375 L 0.8125 -30.984375 Z M 0.8125 -32.203125 "/></g></g></g><g fill="#000000" fill-opacity="1"><g transform="translate(217.302937, 185.778357)"><g><path d="M 24.828125 -19.953125 L 32.8125 -30.984375 L 27.9375 -30.984375 L 27.9375 -32.203125 L 38.015625 -32.203125 L 38.015625 -30.984375 L 34.5 -30.984375 L 25.703125 -18.53125 L 36.734375 -1.21875 L 40.25 -1.21875 L 40.25 0 L 17.65625 0 L 17.65625 -1.21875 L 22.453125 -1.21875 L 15.015625 -13.390625 L 7.3125 -1.21875 L 11.765625 -1.21875 L 11.765625 0 L 1.15625 0 L 1.15625 -1.21875 L 5.609375 -1.21875 L 14.203125 -14.75 L 3.921875 -30.984375 L 0 -30.984375 L 0 -32.203125 L 22.859375 -32.203125 L 22.859375 -30.984375 L 18.125 -30.984375 Z M 24.828125 -19.953125 "/></g></g></g><g fill="#000000" fill-opacity="1"><g transform="translate(86.97725, 225.100766)"><g><path d="M 4.558594 -5.277344 L 6.839844 -5.277344 C 9.226562 -5.277344 11.355469 -7.035156 11.355469 -10.03125 C 11.355469 -12.832031 9.226562 -14.765625 6.839844 -14.765625 L 1.304688 -14.765625 L 1.304688 0 L 4.558594 0 Z M 6.296875 -12.203125 C 7.253906 -12.203125 8.25 -11.378906 8.25 -10.03125 C 8.25 -8.621094 7.253906 -7.839844 6.296875 -7.839844 L 4.558594 -7.839844 L 4.558594 -12.203125 Z M 6.296875 -12.203125 "/></g></g></g><g fill="#000000" fill-opacity="1"><g transform="translate(101.585026, 225.100766)"><g><path d="M 9.421875 -14.765625 L 9.421875 -8.878906 L 4.558594 -8.878906 L 4.558594 -14.765625 L 1.304688 -14.765625 L 1.304688 0 L 4.558594 0 L 4.558594 -5.925781 L 9.421875 -5.925781 L 9.421875 0 L 12.898438 0 L 12.898438 -14.765625 Z M 9.421875 -14.765625 "/></g></g></g><g fill="#000000" fill-opacity="1"><g transform="translate(118.710364, 225.100766)"><g><path d="M 12.703125 -7.402344 C 12.703125 -5.125 10.640625 -3.039062 8.359375 -3.039062 C 6.078125 -3.039062 4.015625 -5.125 4.015625 -7.402344 C 4.015625 -9.683594 6.078125 -11.746094 8.359375 -11.746094 C 10.640625 -11.746094 12.703125 -9.683594 12.703125 -7.402344 Z M 15.957031 -7.382812 C 15.957031 -11.464844 12.441406 -14.980469 8.359375 -14.980469 C 4.277344 -14.980469 0.761719 -11.464844 0.761719 -7.382812 C 0.761719 -3.300781 4.277344 0.21875 8.359375 0.21875 C 12.441406 0.21875 15.957031 -3.300781 15.957031 -7.382812 Z M 15.957031 -7.382812 "/></g></g></g><g fill="#000000" fill-opacity="1"><g transform="translate(138.353277, 225.100766)"><g><path d="M 7.578125 -11.8125 L 11.789062 -11.8125 L 11.789062 -14.765625 L 0.109375 -14.765625 L 0.109375 -11.8125 L 4.320312 -11.8125 L 4.320312 0 L 7.578125 0 Z M 7.578125 -11.8125 "/></g></g></g><g fill="#000000" fill-opacity="1"><g transform="translate(153.178078, 225.100766)"><g><path d="M 12.703125 -7.402344 C 12.703125 -5.125 10.640625 -3.039062 8.359375 -3.039062 C 6.078125 -3.039062 4.015625 -5.125 4.015625 -7.402344 C 4.015625 -9.683594 6.078125 -11.746094 8.359375 -11.746094 C 10.640625 -11.746094 12.703125 -9.683594 12.703125 -7.402344 Z M 15.957031 -7.382812 C 15.957031 -11.464844 12.441406 -14.980469 8.359375 -14.980469 C 4.277344 -14.980469 0.761719 -11.464844 0.761719 -7.382812 C 0.761719 -3.300781 4.277344 0.21875 8.359375 0.21875 C 12.441406 0.21875 15.957031 -3.300781 15.957031 -7.382812 Z M 15.957031 -7.382812 "/></g></g></g><g fill="#000000" fill-opacity="1"><g transform="translate(172.820991, 225.100766)"><g/></g></g><g fill="#000000" fill-opacity="1"><g transform="translate(181.178244, 225.100766)"><g><path d="M 7.035156 -2.300781 C 5.429688 -2.300781 4.039062 -3.105469 3.953125 -4.863281 L 0.652344 -4.863281 C 0.671875 -1.257812 3.648438 0.347656 6.90625 0.347656 C 9.921875 0.347656 13.027344 -0.933594 13.027344 -4.40625 C 13.027344 -10.03125 4.496094 -8.140625 4.496094 -10.769531 C 4.496094 -11.875 5.777344 -12.3125 6.6875 -12.3125 C 8.316406 -12.3125 9.207031 -11.8125 9.378906 -10.269531 L 12.527344 -10.269531 C 12.417969 -13.636719 9.683594 -14.980469 6.644531 -14.980469 C 3.953125 -14.980469 1.128906 -13.546875 1.128906 -10.507812 C 1.128906 -5.058594 9.660156 -6.90625 9.660156 -4.039062 C 9.660156 -2.714844 8.054688 -2.300781 7.035156 -2.300781 Z M 7.035156 -2.300781 "/></g></g></g><g fill="#000000" fill-opacity="1"><g transform="translate(197.782705, 225.100766)"><g><path d="M 7.578125 -11.8125 L 11.789062 -11.8125 L 11.789062 -14.765625 L 0.109375 -14.765625 L 0.109375 -11.8125 L 4.320312 -11.8125 L 4.320312 0 L 7.578125 0 Z M 7.578125 -11.8125 "/></g></g></g><g fill="#000000" fill-opacity="1"><g transform="translate(212.607506, 225.100766)"><g><path d="M 9.921875 -14.765625 L 9.921875 -6.230469 C 9.921875 -4.191406 9.316406 -3.039062 7.078125 -3.039062 C 4.863281 -3.039062 4.234375 -4.191406 4.234375 -6.230469 L 4.234375 -14.765625 L 0.976562 -14.765625 L 0.976562 -5.753906 C 0.976562 -1.824219 3.234375 0.21875 7.078125 0.21875 C 10.921875 0.21875 13.179688 -1.824219 13.179688 -5.753906 L 13.179688 -14.765625 Z M 9.921875 -14.765625 "/></g></g></g><g fill="#000000" fill-opacity="1"><g transform="translate(229.689437, 225.100766)"><g><path d="M 4.515625 -2.996094 L 4.515625 -11.746094 L 5.492188 -11.746094 C 8.011719 -11.746094 9.707031 -9.835938 9.707031 -7.382812 C 9.707031 -4.929688 7.988281 -2.996094 5.492188 -2.996094 Z M 1.304688 -14.765625 L 1.304688 0 L 5.6875 0 C 9.878906 0 13.027344 -3.214844 13.027344 -7.382812 C 13.027344 -11.550781 9.859375 -14.765625 5.6875 -14.765625 Z M 1.304688 -14.765625 "/></g></g></g><g fill="#000000" fill-opacity="1"><g transform="translate(246.402421, 225.100766)"><g><path d="M 4.558594 0 L 4.558594 -14.765625 L 1.304688 -14.765625 L 1.304688 0 Z M 4.558594 0 "/></g></g></g><g fill="#000000" fill-opacity="1"><g transform="translate(255.193738, 225.100766)"><g><path d="M 12.703125 -7.402344 C 12.703125 -5.125 10.640625 -3.039062 8.359375 -3.039062 C 6.078125 -3.039062 4.015625 -5.125 4.015625 -7.402344 C 4.015625 -9.683594 6.078125 -11.746094 8.359375 -11.746094 C 10.640625 -11.746094 12.703125 -9.683594 12.703125 -7.402344 Z M 15.957031 -7.382812 C 15.957031 -11.464844 12.441406 -14.980469 8.359375 -14.980469 C 4.277344 -14.980469 0.761719 -11.464844 0.761719 -7.382812 C 0.761719 -3.300781 4.277344 0.21875 8.359375 0.21875 C 12.441406 0.21875 15.957031 -3.300781 15.957031 -7.382812 Z M 15.957031 -7.382812 "/></g></g></g><g fill="#000000" fill-opacity="1"><g transform="translate(274.836651, 225.100766)"><g><path d="M 7.035156 -2.300781 C 5.429688 -2.300781 4.039062 -3.105469 3.953125 -4.863281 L 0.652344 -4.863281 C 0.671875 -1.257812 3.648438 0.347656 6.90625 0.347656 C 9.921875 0.347656 13.027344 -0.933594 13.027344 -4.40625 C 13.027344 -10.03125 4.496094 -8.140625 4.496094 -10.769531 C 4.496094 -11.875 5.777344 -12.3125 6.6875 -12.3125 C 8.316406 -12.3125 9.207031 -11.8125 9.378906 -10.269531 L 12.527344 -10.269531 C 12.417969 -13.636719 9.683594 -14.980469 6.644531 -14.980469 C 3.953125 -14.980469 1.128906 -13.546875 1.128906 -10.507812 C 1.128906 -5.058594 9.660156 -6.90625 9.660156 -4.039062 C 9.660156 -2.714844 8.054688 -2.300781 7.035156 -2.300781 Z M 7.035156 -2.300781 "/></g></g></g><g fill="#000000" fill-opacity="1"><g transform="translate(187.640365, 252.487488)"><g/></g></g></svg>